<svg xmlns="http://www.w3.org/2000/svg" xmlns:xlink="http://www.w3.org/1999/xlink" version="1.1" width="1000" height="1000" viewBox="0 0 1000 1000" xml:space="preserve">
<desc>Created with Fabric.js 3.5.0</desc>
<defs>
</defs>
<rect x="0" y="0" width="100%" height="100%" fill="rgba(255,255,255,0)"/>
<g transform="matrix(1.2986 0 0 1.2986 668.1422 313.8599)" id="629123">
<path style="stroke: none; stroke-width: 1; stroke-dasharray: none; stroke-linecap: butt; stroke-dashoffset: 0; stroke-linejoin: miter; stroke-miterlimit: 4; is-custom-font: none; font-file-url: none; fill: rgb(0,0,0); fill-rule: nonzero; opacity: 1;" transform=" translate(-479.4886, -206.684)" d="m 571.46 204.28 l -73.293 73.301 c -11.266 11.266 -29.613 11.266 -40.879 0 l -48.699 -48.691 c -11.266 -11.273 -11.266 -29.613 0 -40.887 l 73.297 -73.293 l -30.543 -30.543 l -73.289 73.297 c -28.105 28.105 -28.105 73.848 0 101.96 l 48.691 48.691 c 14.055 14.055 32.512 21.086 50.98 21.086 c 18.457 0 36.926 -7.0273 50.98 -21.086 l 73.297 -73.297 l -15.27 -15.27 z" stroke-linecap="round"/>
</g>
<g transform="matrix(1.2986 0 0 1.2986 371.5562 537.4903)" id="65758">
<path style="stroke: none; stroke-width: 1; stroke-dasharray: none; stroke-linecap: butt; stroke-dashoffset: 0; stroke-linejoin: miter; stroke-miterlimit: 4; is-custom-font: none; font-file-url: none; fill: rgb(0,0,0); fill-rule: nonzero; opacity: 1;" transform=" translate(-251.1129, -378.8827)" d="m 404.23 312.48 l -15.27 -15.273 l -15.273 -15.27 l -45.285 45.289 l -103.64 103.63 l -88.094 -8.6094 l -34.473 -3.3633 l -4.1992 42.984 l 142.88 13.961 z" stroke-linecap="round"/>
</g>
</svg>